<svg width="158" height="32" viewBox="0 0 158 32" fill="none" xmlns="http://www.w3.org/2000/svg">
<path d="M8.53803 2.232H9.15003L11.994 12.096L7.85403 27H0.654031L8.53803 2.232ZM16.638 22.608H10.626L12.138 17.064H15.018L10.77 2.232H17.358L25.242 27H17.898L16.638 22.608ZM41.3889 27.072V14.616C41.3889 12.528 41.3769 11.16 41.3529 10.512C41.3049 9.528 41.1729 8.82 40.9569 8.388C40.7409 7.932 40.3929 7.656 39.9129 7.56C39.4329 7.488 38.7489 7.452 37.8609 7.452C36.8289 7.452 36.1569 7.5 35.8449 7.596V1.98C36.0609 1.956 36.3849 1.944 36.8169 1.944H37.8609C40.5489 1.944 42.6249 2.16 44.0889 2.592C45.5769 3 46.6569 3.684 47.3289 4.644C47.9529 5.532 48.3369 6.696 48.4809 8.136C48.6489 9.576 48.7329 11.736 48.7329 14.616C48.7329 17.232 48.6249 19.296 48.4089 20.808C48.2169 22.296 47.7609 23.532 47.0409 24.516L51.7929 30.924V31.14H43.7289L41.3889 27.072ZM37.8609 27.288C34.3569 27.288 31.8369 26.904 30.3009 26.136C29.5089 25.752 28.8849 25.236 28.4289 24.588C27.9729 23.94 27.6369 23.136 27.4209 22.176C27.2289 21.336 27.1089 20.376 27.0609 19.296C27.0129 18.192 26.9889 16.632 26.9889 14.616C26.9889 12.096 27.0369 10.164 27.1329 8.82C27.2529 7.476 27.5289 6.348 27.9609 5.436C28.4409 4.452 29.1729 3.696 30.1569 3.168C31.1409 2.64 32.5329 2.28 34.3329 2.088V14.616C34.3329 16.032 34.3569 17.388 34.4049 18.684C34.4529 19.668 34.5729 20.388 34.7649 20.844C34.9809 21.3 35.3289 21.564 35.8089 21.636C36.2169 21.732 36.9009 21.78 37.8609 21.78C38.8449 21.78 39.5169 21.744 39.8769 21.672V27.216C38.9649 27.264 38.2929 27.288 37.8609 27.288ZM57.6336 27.252C55.4736 27.252 54.0216 26.592 53.2776 25.272C52.9416 24.696 52.7136 24 52.5936 23.184C52.4736 22.344 52.4136 21.324 52.4136 20.124V8.64H59.0736V17.316C59.0736 18.588 59.0856 19.428 59.1096 19.836C59.1576 20.436 59.2296 20.868 59.3256 21.132C59.4216 21.396 59.5776 21.564 59.7936 21.636C60.0096 21.684 60.3936 21.708 60.9456 21.708H61.3056V26.208C60.3696 26.904 59.1456 27.252 57.6336 27.252ZM62.8176 8.64H69.4776V27H62.8176V8.64ZM82.9753 15.624C82.9753 15 82.9513 14.556 82.9033 14.292C82.8553 14.028 82.7113 13.836 82.4713 13.716C82.2553 13.596 81.8473 13.512 81.2473 13.464C80.8873 13.44 80.1073 13.428 78.9073 13.428C77.7553 13.428 76.6873 13.476 75.7033 13.572L73.7953 13.68V9C76.0513 8.568 78.4873 8.352 81.1033 8.352C83.1193 8.352 84.6913 8.496 85.8193 8.784C86.9713 9.072 87.8353 9.528 88.4113 10.152C88.9153 10.728 89.2393 11.46 89.3833 12.348C89.5513 13.236 89.6353 14.472 89.6353 16.056V27H82.9753V15.624ZM77.6473 27.252C75.9913 27.252 74.7673 26.796 73.9753 25.884C73.1833 24.948 72.7873 23.544 72.7873 21.672C72.7873 20.52 72.8713 19.596 73.0393 18.9C73.2073 18.18 73.4953 17.616 73.9033 17.208C74.3113 16.776 74.8753 16.476 75.5953 16.308C76.3153 16.116 77.2633 16.02 78.4393 16.02L81.4633 16.092V19.296H81.1033C80.5513 19.296 80.1913 19.308 80.0233 19.332C79.5433 19.356 79.2913 19.584 79.2673 20.016C79.2433 20.16 79.2313 20.46 79.2313 20.916C79.2313 21.276 79.2433 21.552 79.2673 21.744C79.3153 21.936 79.3873 22.092 79.4833 22.212C79.6033 22.38 79.7833 22.476 80.0233 22.5C80.3593 22.548 80.7193 22.572 81.1033 22.572H81.4633V26.244C80.9353 26.652 80.3713 26.916 79.7713 27.036C79.1953 27.18 78.4873 27.252 77.6473 27.252ZM101.826 9.684C102.33 9.204 102.918 8.868 103.59 8.676C104.286 8.46 105.138 8.352 106.146 8.352V14.364C105.066 14.364 104.178 14.436 103.482 14.58C102.81 14.724 102.258 14.976 101.826 15.336V9.684ZM93.6536 8.64H100.314V27H93.6536V8.64Z" fill="#0A2D73"/>
<path d="M108.947 0.251999H115.607V5.436H108.947V0.251999ZM108.947 8.64H115.607V27H108.947V8.64ZM130.108 18.324C130.108 17.052 130.096 16.212 130.072 15.804C130.024 15.132 129.964 14.688 129.892 14.472C129.796 14.232 129.628 14.088 129.388 14.04C129.148 13.968 128.764 13.932 128.236 13.932H127.876V9.432C128.812 8.736 130.036 8.388 131.548 8.388C133.708 8.388 135.16 9.048 135.904 10.368C136.24 10.944 136.468 11.652 136.588 12.492C136.708 13.308 136.768 14.316 136.768 15.516V27H130.108V18.324ZM119.704 8.64H126.364V27H119.704V8.64ZM151.128 17.856C151.128 16.632 151.116 15.816 151.092 15.408C151.068 14.832 150.996 14.4 150.876 14.112C150.756 13.8 150.564 13.608 150.3 13.536C150.012 13.464 149.616 13.428 149.112 13.428H148.608V8.352H149.112C151.2 8.352 152.832 8.52 154.008 8.856C155.184 9.168 156.06 9.696 156.636 10.44C157.164 11.112 157.5 12.012 157.644 13.14C157.812 14.244 157.896 15.816 157.896 17.856C157.896 19.752 157.836 21.228 157.716 22.284C157.62 23.316 157.368 24.168 156.96 24.84C156.504 25.584 155.82 26.148 154.908 26.532C153.996 26.892 152.736 27.12 151.128 27.216V17.856ZM149.112 27.288C147.024 27.288 145.392 27.132 144.216 26.82C143.04 26.508 142.164 25.98 141.588 25.236C141.06 24.564 140.712 23.676 140.544 22.572C140.4 21.468 140.328 19.896 140.328 17.856C140.328 15.984 140.388 14.52 140.508 13.464C140.628 12.408 140.892 11.532 141.3 10.836C141.732 10.068 142.404 9.504 143.316 9.144C144.228 8.76 145.488 8.52 147.096 8.424V17.856C147.096 19.08 147.108 19.884 147.132 20.268C147.156 20.844 147.228 21.276 147.348 21.564C147.468 21.852 147.672 22.032 147.96 22.104C148.2 22.176 148.584 22.212 149.112 22.212H149.616V27.288H149.112Z" fill="#FECD08"/>
</svg>
