<svg width="206" height="22" viewBox="0 0 206 22" fill="none" xmlns="http://www.w3.org/2000/svg">
<path d="M104.577 21.6225C103.488 21.6225 102.433 21.4543 101.413 21.118C100.392 20.7717 99.4997 20.287 98.7345 19.6638C97.9791 19.0307 97.4493 18.2739 97.1452 17.3935L98.6315 16.8296C98.867 17.5023 99.2937 18.081 99.9118 18.5657C100.54 19.0406 101.261 19.4016 102.075 19.6489C102.899 19.8963 103.733 20.0199 104.577 20.0199C105.577 20.0199 106.514 19.8468 107.387 19.5006C108.261 19.1543 108.967 18.6745 109.506 18.0612C110.046 17.438 110.316 16.701 110.316 15.8502C110.316 14.9995 110.036 14.3021 109.477 13.758C108.918 13.204 108.197 12.7687 107.314 12.4522C106.441 12.1257 105.528 11.8735 104.577 11.6954C103.184 11.4481 101.938 11.1216 100.839 10.716C99.7401 10.3005 98.867 9.71689 98.2195 8.96506C97.5818 8.21323 97.2629 7.2042 97.2629 5.93796C97.2629 4.76075 97.6014 3.74183 98.2783 2.88118C98.9651 2.02053 99.8627 1.35279 100.971 0.877952C102.08 0.403113 103.282 0.165693 104.577 0.165693C105.626 0.165693 106.657 0.333866 107.667 0.670211C108.677 0.996662 109.57 1.47645 110.345 2.10957C111.12 2.74269 111.68 3.5143 112.023 4.42441L110.507 4.97344C110.272 4.29086 109.845 3.71215 109.227 3.23731C108.609 2.76247 107.888 2.4014 107.064 2.15408C106.249 1.90677 105.42 1.78311 104.577 1.78311C103.566 1.77322 102.624 1.94634 101.751 2.30247C100.888 2.64871 100.186 3.13344 99.6469 3.75666C99.1171 4.37989 98.8522 5.10699 98.8522 5.93796C98.8522 6.89753 99.1024 7.63947 99.6027 8.16377C100.103 8.68807 100.785 9.08377 101.648 9.35087C102.512 9.60807 103.488 9.84055 104.577 10.0483C105.872 10.2758 107.073 10.627 108.182 11.1018C109.3 11.5668 110.198 12.19 110.875 12.9715C111.562 13.7431 111.905 14.7027 111.905 15.8502C111.905 17.0175 111.562 18.0365 110.875 18.907C110.198 19.7677 109.305 20.4354 108.197 20.9102C107.088 21.3851 105.881 21.6225 104.577 21.6225Z" fill="white"/>
<path d="M131.482 0.462467V2.06505H124.183V21.2367H122.593V2.06505H115.309V0.462467H131.482Z" fill="white"/>
<path d="M143.825 21.6225C142.177 21.6225 140.759 21.2169 139.572 20.4057C138.395 19.5945 137.487 18.5064 136.849 17.1412C136.222 15.7661 135.908 14.2427 135.908 12.5709V0.462467H137.497V12.5709C137.497 13.9261 137.742 15.1676 138.233 16.2954C138.723 17.4231 139.439 18.3283 140.381 19.0109C141.323 19.6836 142.471 20.0199 143.825 20.0199C145.208 20.0199 146.366 19.6786 147.298 18.996C148.239 18.3135 148.951 17.4083 149.431 16.2806C149.912 15.1429 150.152 13.9064 150.152 12.5709V0.462467H151.742V12.5709C151.742 13.8272 151.56 15.0044 151.197 16.1025C150.834 17.1907 150.309 18.1502 149.623 18.9812C148.946 19.8122 148.117 20.4601 147.136 20.9251C146.164 21.39 145.061 21.6225 143.825 21.6225Z" fill="white"/>
<path d="M156.665 21.2367V0.462467H163.478C164.901 0.462467 166.235 0.734511 167.481 1.2786C168.727 1.81279 169.821 2.55968 170.763 3.51925C171.704 4.46893 172.44 5.57194 172.97 6.82828C173.51 8.07474 173.779 9.41517 173.779 10.8496C173.779 12.284 173.51 13.6294 172.97 14.8857C172.44 16.1322 171.704 17.2352 170.763 18.1947C169.821 19.1444 168.727 19.8913 167.481 20.4354C166.235 20.9696 164.901 21.2367 163.478 21.2367H156.665ZM158.254 19.6341H163.478C164.685 19.6341 165.813 19.4066 166.863 18.9515C167.913 18.4965 168.835 17.8683 169.63 17.067C170.434 16.2558 171.062 15.321 171.513 14.2625C171.964 13.204 172.19 12.0664 172.19 10.8496C172.19 9.6328 171.964 8.49517 171.513 7.43667C171.062 6.37817 170.434 5.44828 169.63 4.64699C168.825 3.83581 167.898 3.20269 166.848 2.74763C165.799 2.29258 164.675 2.06505 163.478 2.06505H158.254V19.6341Z" fill="white"/>
<path d="M178.496 21.2367V0.462467H180.085V21.2367H178.496Z" fill="white"/>
<path d="M195.098 21.6225C193.705 21.6225 192.396 21.3455 191.169 20.7915C189.943 20.2277 188.864 19.4511 187.932 18.4618C187 17.4726 186.269 16.33 185.739 15.0341C185.209 13.7283 184.945 12.3335 184.945 10.8496C184.945 9.36571 185.209 7.97581 185.739 6.67989C186.269 5.37409 187 4.22656 187.932 3.23731C188.864 2.24806 189.943 1.47645 191.169 0.922468C192.396 0.358596 193.705 0.0766602 195.098 0.0766602C196.501 0.0766602 197.816 0.358596 199.042 0.922468C200.269 1.47645 201.348 2.24806 202.28 3.23731C203.212 4.22656 203.938 5.37409 204.458 6.67989C204.987 7.97581 205.252 9.36571 205.252 10.8496C205.252 12.3335 204.987 13.7283 204.458 15.0341C203.938 16.33 203.212 17.4726 202.28 18.4618C201.348 19.4511 200.269 20.2277 199.042 20.7915C197.816 21.3455 196.501 21.6225 195.098 21.6225ZM195.098 20.0199C196.295 20.0199 197.409 19.7775 198.439 19.2928C199.479 18.8081 200.386 18.1453 201.161 17.3044C201.946 16.4537 202.559 15.4743 203.001 14.3664C203.442 13.2584 203.663 12.0861 203.663 10.8496C203.663 9.59323 203.437 8.41108 202.986 7.30312C202.545 6.19516 201.932 5.22076 201.147 4.37989C200.362 3.53903 199.454 2.88118 198.424 2.40634C197.394 1.92161 196.286 1.67924 195.098 1.67924C193.902 1.67924 192.783 1.92161 191.743 2.40634C190.713 2.89107 189.806 3.55882 189.021 4.40957C188.246 5.25043 187.638 6.22484 187.196 7.3328C186.755 8.44076 186.534 9.61302 186.534 10.8496C186.534 12.1059 186.755 13.2881 187.196 14.396C187.647 15.504 188.265 16.4834 189.05 17.3341C189.835 18.175 190.743 18.8328 191.773 19.3077C192.813 19.7825 193.921 20.0199 195.098 20.0199Z" fill="white"/>
<path d="M7.49664 21.8343C6.42862 21.7652 5.39484 21.5512 4.39529 21.1921C3.40943 20.8192 2.53311 20.3151 1.76633 19.6798C0.999552 19.0445 0.410775 18.285 0 17.4011L4.23098 15.5781C4.39529 15.8543 4.66229 16.1512 5.03199 16.4689C5.40169 16.7727 5.83985 17.0282 6.34647 17.2354C6.86678 17.4425 7.43502 17.5461 8.05118 17.5461C8.5715 17.5461 9.06443 17.477 9.52997 17.3389C10.0092 17.187 10.3926 16.9591 10.6801 16.6553C10.9814 16.3515 11.132 15.9579 11.132 15.4745C11.132 14.9635 10.954 14.5699 10.598 14.2937C10.2557 14.0037 9.81752 13.7896 9.28351 13.6515C8.76319 13.4996 8.25657 13.3615 7.76364 13.2372C6.46286 12.9748 5.25107 12.5674 4.12829 12.015C3.01919 11.4625 2.12234 10.7513 1.43771 9.88122C0.76678 8.99735 0.431314 7.93393 0.431314 6.69098C0.431314 5.32373 0.787318 4.14293 1.49933 3.14857C2.22503 2.15421 3.16297 1.38773 4.31313 0.849113C5.477 0.310501 6.72986 0.0411953 8.07172 0.0411953C9.70113 0.0411953 11.1936 0.386459 12.5492 1.07699C13.9184 1.7537 15.0001 2.71354 15.7943 3.95649L11.8303 6.3181C11.6386 5.98664 11.3716 5.68281 11.0293 5.4066C10.687 5.11657 10.2968 4.8818 9.85859 4.70226C9.42043 4.50891 8.96174 4.39842 8.4825 4.3708C7.86634 4.34318 7.30494 4.39843 6.79832 4.53653C6.2917 4.67464 5.88092 4.90941 5.566 5.24087C5.26476 5.57232 5.11415 6.01426 5.11415 6.56669C5.11415 7.09149 5.31953 7.48509 5.73031 7.74749C6.14108 7.99608 6.63401 8.18943 7.2091 8.32753C7.79787 8.46564 8.35927 8.61756 8.89327 8.78328C10.0982 9.18379 11.2278 9.67406 12.2822 10.2541C13.3502 10.8342 14.206 11.5454 14.8495 12.3878C15.4931 13.2303 15.8011 14.2385 15.7737 15.4124C15.7737 16.752 15.3767 17.9259 14.5825 18.9341C13.7883 19.9284 12.7614 20.688 11.5017 21.2128C10.2557 21.7376 8.92066 21.9448 7.49664 21.8343Z" fill="white"/>
<path d="M28.0049 22C26.1153 22 24.3901 21.5097 22.8291 20.5292C21.2819 19.5486 20.0427 18.2366 19.1116 16.5932C18.1942 14.9359 17.7355 13.106 17.7355 11.1035C17.7355 9.5843 18.0025 8.16871 18.5365 6.85671C19.0705 5.53089 19.8031 4.37081 20.7342 3.37645C21.679 2.36827 22.7744 1.58107 24.0204 1.01484C25.2664 0.448607 26.5946 0.165491 28.0049 0.165491C29.8945 0.165491 31.6129 0.655764 33.1601 1.63631C34.7211 2.61686 35.9602 3.93577 36.8776 5.59304C37.8087 7.25031 38.2743 9.08712 38.2743 11.1035C38.2743 12.6088 38.0073 14.0175 37.4732 15.3295C36.9392 16.6415 36.1998 17.8016 35.2551 18.8098C34.324 19.8041 33.2354 20.5844 31.9894 21.1506C30.7571 21.7169 29.4289 22 28.0049 22ZM28.0049 16.9453C29.0044 16.9453 29.9013 16.676 30.6955 16.1374C31.4896 15.5988 32.1126 14.8876 32.5645 14.0037C33.03 13.1198 33.2628 12.1531 33.2628 11.1035C33.2628 10.0262 33.0232 9.04568 32.5439 8.16181C32.0784 7.26412 31.4417 6.55287 30.6338 6.02807C29.8397 5.48946 28.9634 5.22015 28.0049 5.22015C27.019 5.22015 26.129 5.48946 25.3349 6.02807C24.5407 6.56668 23.9108 7.28484 23.4453 8.18252C22.9797 9.08021 22.747 10.0539 22.747 11.1035C22.747 12.1945 22.9866 13.1819 23.4658 14.0658C23.9451 14.9497 24.5818 15.654 25.3759 16.1788C26.1838 16.6898 27.0601 16.9453 28.0049 16.9453Z" fill="white"/>
<path d="M60.2857 8.36897V21.4614H55.2742V9.69478C55.2742 8.87996 55.0757 8.14109 54.6786 7.47818C54.2815 6.80147 53.7475 6.26976 53.0766 5.88306C52.4193 5.48255 51.6868 5.2823 50.8789 5.2823C50.0711 5.2823 49.3317 5.48255 48.6608 5.88306C48.0035 6.26976 47.4764 6.80147 47.0793 7.47818C46.6959 8.14109 46.5042 8.87996 46.5042 9.69478V21.4614H41.4927L41.4722 0.745534H46.4837L46.5042 2.58924C47.2025 1.84347 48.0378 1.25652 49.0099 0.828397C49.9821 0.386459 51.0296 0.165491 52.1523 0.165491C53.6448 0.165491 55.0072 0.538375 56.2396 1.28415C57.4719 2.01611 58.4509 3.00356 59.1766 4.24651C59.916 5.47565 60.2857 6.8498 60.2857 8.36897Z" fill="white"/>
<path d="M64.3777 6.85671H69.3892V21.4614H64.3777V6.85671Z" fill="white"/>
<path d="M86.5788 15.2259L91.0973 17.6911C90.1525 18.9893 88.9681 20.032 87.5441 20.8192C86.1201 21.6064 84.566 22 82.8818 22C80.9923 22 79.267 21.5097 77.7061 20.5292C76.1588 19.5486 74.9196 18.2366 73.9886 16.5932C73.0712 14.9359 72.6125 13.106 72.6125 11.1035C72.6125 9.5843 72.8795 8.16871 73.4135 6.85671C73.9475 5.53089 74.68 4.37081 75.6111 3.37645C76.5559 2.36827 77.6513 1.58107 78.8973 1.01484C80.1433 0.448607 81.4715 0.165491 82.8818 0.165491C84.566 0.165491 86.1201 0.55909 87.5441 1.34629C88.9681 2.1335 90.1525 3.19 91.0973 4.51582L86.5788 6.96029C86.0995 6.40786 85.5313 5.97973 84.8741 5.6759C84.2305 5.37207 83.5664 5.22015 82.8818 5.22015C81.896 5.22015 81.006 5.49637 80.2118 6.04879C79.4176 6.5874 78.7878 7.30555 78.3222 8.20324C77.8567 9.08711 77.6239 10.0539 77.6239 11.1035C77.6239 12.1393 77.8567 13.106 78.3222 14.0037C78.7878 14.8876 79.4176 15.5988 80.2118 16.1374C81.006 16.676 81.896 16.9453 82.8818 16.9453C83.5938 16.9453 84.2716 16.7934 84.9152 16.4896C85.5587 16.1719 86.1132 15.7507 86.5788 15.2259Z" fill="white"/>
<path d="M64.9528 4.45391C65.4594 4.93728 66.0824 5.17896 66.8218 5.17896C67.5475 5.17896 68.1568 4.93728 68.6498 4.45391C69.1427 3.95673 69.3892 3.33525 69.3892 2.58948C69.3892 1.85752 69.1359 1.24295 68.6292 0.745771C68.1363 0.24859 67.527 0 66.8013 0C66.0756 0 65.4594 0.24859 64.9528 0.745771C64.4462 1.24295 64.1929 1.85752 64.1929 2.58948C64.1929 3.33525 64.4462 3.95673 64.9528 4.45391Z" fill="white"/>
</svg>
